HIERARCHY
ROOT hip
{
	OFFSET 0.000000 0.000000 0.000000 
	CHANNELS 6 Xposition Yposition Zposition Xrotation Zrotation Yrotation
	JOINT abdomen
	{
		OFFSET 0.000000 3.402643 0.000000 
		CHANNELS 3 Xrotation Zrotation Yrotation
		JOINT chest
		{
			OFFSET 0.000000 8.438565 -0.680529 
			CHANNELS 3 Xrotation Zrotation Yrotation
			JOINT neck
			{
				OFFSET 0.000000 10.207942 -0.272212 
				CHANNELS 3 Xrotation Zrotation Yrotation
				JOINT head
				{
					OFFSET 0.000000 3.130431 0.000000 
					CHANNELS 3 Xrotation Zrotation Yrotation
					End Site
					{
						OFFSET 0.000000 3.130435 0.000000 
					}
				}
			}
			JOINT lCollar
			{
				OFFSET 3.470700 6.669187 -0.816635 
				CHANNELS 3 Yrotation Zrotation Xrotation
				JOINT lShldr
				{
					OFFSET 3.198488 0.000000 0.000000 
					CHANNELS 3 Zrotation Yrotation Xrotation
					JOINT lForeArm
					{
						OFFSET 10.139888 0.000000 0.000000 
						CHANNELS 3 Yrotation Zrotation Xrotation
						JOINT lHand
						{
							OFFSET 8.370511 0.000000 0.000000 
							CHANNELS 3 Zrotation Yrotation Xrotation
							End Site
							{
								OFFSET 4.083176 0.000000 0.000000 
							}
						}
					}
				}
			}
			JOINT rCollar
			{
				OFFSET -3.470700 6.669187 -0.816635 
				CHANNELS 3 Yrotation Zrotation Xrotation
				JOINT rShldr
				{
					OFFSET -3.198488 0.000000 0.000000 
					CHANNELS 3 Zrotation Yrotation Xrotation
					JOINT rForeArm
					{
						OFFSET -10.139888 0.000000 0.000000 
						CHANNELS 3 Yrotation Zrotation Xrotation
						JOINT rHand
						{
							OFFSET -8.370511 0.000000 0.000000 
							CHANNELS 3 Zrotation Yrotation Xrotation
							End Site
							{
								OFFSET -4.083176 0.000000 0.000000 
							}
						}
					}
				}
			}
		}
	}
	JOINT lThigh
	{
		OFFSET 5.308129 -1.633274 1.361059 
		CHANNELS 3 Xrotation Zrotation Yrotation
		JOINT lShin
		{
			OFFSET -2.041588 -20.007561 0.000000 
			CHANNELS 3 Xrotation Zrotation Yrotation
			JOINT lFoot
			{
				OFFSET 0.000000 -19.190928 -1.224953 
				CHANNELS 3 Xrotation Yrotation Zrotation
				End Site
				{
					OFFSET 0.000000 -2.449906 4.627600 
				}
			}
		}
	}
	JOINT rThigh
	{
		OFFSET -5.308129 -1.633274 1.361059 
		CHANNELS 3 Xrotation Zrotation Yrotation
		JOINT rShin
		{
			OFFSET 2.041588 -20.007561 0.000000 
			CHANNELS 3 Xrotation Zrotation Yrotation
			JOINT rFoot
			{
				OFFSET 0.000000 -19.190928 -1.224953 
				CHANNELS 3 Xrotation Yrotation Zrotation
				End Site
				{
					OFFSET 0.000000 -2.449906 4.627600 
				}
			}
		}
	}
}
MOTION
Frames: 19
Frame Time: 0.033333
0.000000 49.468178 0.000000 0.000000 0.000000 -8.632813 0.000000 0.000000 0.000000 0.527344 0.000000 0.000000 -5.429688 -2.539063 -4.678167 5.585938 2.041015 -0.224609 -2.822266 -0.097656 -0.019515 -76.621086 1.386719 -4.775153 -5.800781 -5.937500 5.801791 3.398438 -0.849609 -6.162237 2.792969 0.068359 -0.019531 76.738281 1.865235 8.555007 -5.673828 3.164063 5.185008 -2.050781 1.523438 -5.439454 2.868015 2.029710 8.077724 -2.608298 -3.726693 0.251434 -0.376193 4.499825 0.939886 0.819640 -4.623509 7.847574 4.600451 5.068396 0.648092 -8.237721 -4.517370 -1.710004 
0.000000 49.468178 0.000000 0.000000 0.000000 -8.632813 0.000000 0.000000 0.000000 1.054688 0.000000 0.000000 -5.429688 -2.539063 -4.678167 5.585938 2.041015 -0.224609 -2.822266 -0.097656 -0.019515 -76.445313 -0.380859 -4.677734 -5.800781 -5.937500 5.801791 3.398438 -0.849609 -6.162237 2.792969 0.068359 -0.019531 76.914063 3.623047 8.516244 -5.673828 3.164063 5.185008 -2.050781 1.523438 -5.439454 2.868015 2.029710 8.077724 -2.608298 -3.726693 0.251434 -0.376193 4.499825 0.939886 0.819640 -4.623509 7.847574 4.600451 5.068396 0.648092 -8.237721 -4.517370 -1.710004 
0.000000 49.468178 0.000000 0.000000 0.000000 -8.632813 0.000000 0.000000 0.000000 1.572266 0.000000 0.000000 -5.429688 -2.539063 -4.678167 5.585938 2.041015 -0.224609 -2.822266 -0.097656 -0.019515 -76.279297 -1.787109 -4.921875 -5.800781 -5.937500 5.801791 3.398438 -0.849609 -6.162237 2.792969 0.068359 -0.019531 77.265625 5.556641 8.467880 -5.673828 3.164063 5.185008 -2.050781 1.523438 -5.439454 2.868015 2.029710 8.077724 -2.608298 -3.726693 0.251434 -0.376193 4.499825 0.939886 0.819640 -4.623509 7.847574 4.600451 5.068396 0.648092 -8.237721 -4.517370 -1.710004 
0.000000 49.468178 0.000000 0.000000 0.000000 -8.632813 0.000000 0.000000 0.000000 2.275391 0.000000 0.000000 -5.429688 -2.539063 -4.678167 5.585938 2.041015 -0.224609 -2.822266 -0.097656 -0.019515 -76.103516 -3.720703 -5.019532 -5.800781 -5.937500 5.801791 3.398438 -0.849609 -6.162237 2.792969 0.068359 -0.019531 77.607422 7.480468 8.595021 -5.673828 3.164063 5.185008 -2.050781 1.523438 -5.439454 2.868015 2.029710 8.077724 -2.608298 -3.726693 0.251434 -0.376193 4.499825 0.939886 0.819640 -4.623509 7.847574 4.600451 5.068396 0.648092 -8.237721 -4.517370 -1.710004 
0.000000 49.468178 0.000000 0.000000 0.000000 -8.632813 0.000000 0.000000 0.000000 2.812500 0.000000 0.000000 -5.429688 -2.539063 -4.678167 5.585938 2.041015 -0.224609 -2.822266 -0.097656 -0.019515 -75.908203 -5.302734 -5.088791 -5.800781 -5.937500 5.801791 3.398438 -0.849609 -6.162237 2.792969 0.068359 -0.019531 77.773438 9.248047 8.556258 -5.673828 3.164063 5.185008 -2.050781 1.523438 -5.439454 2.868015 2.029710 8.077724 -2.608298 -3.726693 0.251434 -0.376193 4.499825 0.939886 0.819640 -4.623509 7.847574 4.600451 5.068396 0.648092 -8.237721 -4.517370 -1.710004 
0.000000 49.468178 0.000000 0.000000 0.000000 -8.632813 0.000000 0.000000 0.000000 3.339844 0.000000 0.000000 -5.429688 -2.539063 -4.678167 5.585938 2.041015 -0.224609 -2.822266 -0.097656 -0.019515 -75.898438 -7.050781 -5.176978 -5.800781 -5.937500 5.801791 3.398438 -0.849609 -6.162237 2.792969 0.068359 -0.019531 78.105469 10.996093 8.505860 -5.673828 3.164063 5.185008 -2.050781 1.523438 -5.439454 2.868015 2.029710 8.077724 -2.608298 -3.726693 0.251434 -0.376193 4.499825 0.939886 0.819640 -4.623509 7.847574 4.600451 5.068396 0.648092 -8.237721 -4.517370 -1.710004 
0.000000 49.468178 0.000000 0.000000 0.000000 -8.632813 0.000000 0.000000 0.000000 3.867188 0.000000 0.000000 -5.429688 -2.539063 -4.678167 5.585938 2.041015 -0.224609 -2.822266 -0.097656 -0.019515 -75.722656 -8.632813 -5.234375 -5.800781 -5.937500 5.801791 3.398438 -0.849609 -6.162237 2.792969 0.068359 -0.019531 78.271484 12.929688 8.466797 -5.673828 3.164063 5.185008 -2.050781 1.523438 -5.439454 2.868015 2.029710 8.077724 -2.608298 -3.726693 0.251434 -0.376193 4.499825 0.939886 0.819640 -4.623509 7.847574 4.600451 5.068396 0.648092 -8.237721 -4.517370 -1.710004 
0.000000 49.468178 0.000000 0.000000 0.000000 -8.632813 0.000000 0.000000 0.000000 4.384766 0.000000 0.000000 -5.429688 -2.539063 -4.678167 5.585938 2.041015 -0.224609 -2.822266 -0.097656 -0.019515 -75.537109 -10.390626 -5.312500 -5.800781 -5.937500 5.801791 3.398438 -0.849609 -6.162237 2.792969 0.068359 -0.019531 78.603516 14.697266 8.586680 -5.673828 3.164063 5.185008 -2.050781 1.523438 -5.439454 2.868015 2.029710 8.077724 -2.608298 -3.726693 0.251434 -0.376193 4.499825 0.939886 0.819640 -4.623509 7.847574 4.600451 5.068396 0.648092 -8.237721 -4.517370 -1.710004 
0.000000 49.468178 0.000000 0.000000 0.000000 -8.632813 0.000000 0.000000 0.000000 5.087891 0.000000 0.000000 -5.429688 -2.539063 -4.678167 5.585938 2.041015 -0.224609 -2.822266 -0.097656 -0.019515 -75.341797 -11.953125 -5.568428 -5.800781 -5.937500 5.801791 3.398438 -0.849609 -6.162237 2.792969 0.068359 -0.019531 78.955078 16.630859 8.557485 -5.673828 3.164063 5.185008 -2.050781 1.523438 -5.439454 2.868015 2.029710 8.077724 -2.608298 -3.726693 0.251434 -0.376193 4.499825 0.939886 0.819640 -4.623509 7.847574 4.600451 5.068396 0.648092 -8.237721 -4.517370 -1.710004 
0.000000 49.468178 0.000000 0.000000 0.000000 -8.632813 0.000000 0.000000 0.000000 5.625000 0.000000 0.000000 -5.429688 -2.539063 -4.678167 5.585938 2.041015 -0.224609 -2.822266 -0.097656 -0.019515 -75.156250 -13.710937 -5.644531 -5.800781 -5.937500 5.801791 3.398438 -0.849609 -6.162237 2.792969 0.068359 -0.019531 79.111328 18.388672 8.508942 -5.673828 3.164063 5.185008 -2.050781 1.523438 -5.439454 2.868015 2.029710 8.077724 -2.608298 -3.726693 0.251434 -0.376193 4.499825 0.939886 0.819640 -4.623509 7.847574 4.600451 5.068396 0.648092 -8.237721 -4.517370 -1.710004 
0.000000 49.518833 1.826799 0.000000 0.000000 -8.632813 0.000000 0.000000 0.000000 5.087891 0.000000 0.000000 -5.429688 -2.539063 -4.678167 5.585938 2.041015 -0.224609 -2.822266 -0.097656 -0.019515 -75.537109 -10.566406 -5.322266 -5.800781 -5.937500 5.801791 3.398438 -0.849609 -6.162237 2.792969 0.068359 -0.019531 79.287109 18.398438 8.684724 -2.333985 3.154297 5.117188 -2.050781 1.523438 -5.439454 0.477731 2.396715 8.035456 -1.914280 -3.735569 0.202775 -0.170078 4.423939 1.111274 0.819640 -4.623509 7.847574 7.333118 4.822756 0.851127 -8.114402 -4.387363 -1.643767 
0.000000 49.721470 3.196900 0.000000 0.000000 -8.632813 0.000000 0.000000 0.000000 4.746094 0.000000 0.000000 -5.429688 -2.539063 -4.678167 5.585938 2.041015 -0.224609 -2.822266 -0.097656 -0.019515 -75.722656 -7.402343 -5.175781 -5.800781 -5.937500 5.801791 3.398438 -0.849609 -6.162237 2.792969 0.068359 -0.019531 79.287109 18.398438 8.684724 -0.048828 3.134766 5.068359 -2.050781 1.523438 -5.439454 -1.764745 2.738259 8.353376 -1.445319 -3.763729 0.170512 0.049250 4.656986 0.991567 0.819639 -4.623512 7.847574 10.525392 4.851532 1.109634 -8.058867 -4.492115 -1.486377 
0.000000 49.844479 5.023699 0.000000 0.000000 -8.632813 0.000000 0.000000 0.000000 4.218750 0.000000 0.000000 -5.429688 -2.539063 -4.678167 5.585938 2.041015 -0.224609 -2.822266 -0.097656 -0.019515 -76.083984 -4.599609 -5.059375 -5.800781 -5.937500 5.801791 3.398438 -0.849609 -6.162237 2.792969 0.068359 -0.019531 79.287109 18.564455 8.684752 4.355469 3.105469 4.970174 -2.050781 1.523438 -5.439454 -4.055945 2.932745 8.653980 -0.595758 -3.800693 0.091616 0.059280 4.419824 1.120511 0.819640 -4.623509 7.847574 13.578507 4.801224 1.361488 -8.134933 -4.440586 -1.466115 
0.000000 49.902374 6.393798 0.000000 0.000000 -8.632813 0.000000 0.000000 0.000000 3.681641 0.000000 0.000000 -5.429688 -2.539063 -4.678167 5.585938 2.041015 -0.224609 -2.822266 -0.097656 -0.019515 -76.279297 -1.425781 -4.912109 -5.800781 -5.937500 5.801791 3.398438 -0.849609 -6.162237 2.792969 0.068359 -0.019531 79.287109 18.564455 8.684752 7.871093 3.076172 4.912109 -2.050781 1.523438 -5.439454 -6.404359 3.221428 8.392172 0.281074 -3.837243 0.029631 0.093656 4.588406 1.141555 0.819640 -4.623509 7.847574 16.940813 4.625950 1.766095 -8.238458 -4.479205 -1.692256 
0.000000 49.873428 8.220599 0.000000 0.000000 -8.632813 0.000000 0.000000 0.000000 3.164063 0.000000 0.000000 -5.429688 -2.539063 -4.678167 5.585938 2.041015 -0.224609 -2.822266 -0.097656 -0.019515 -76.630859 1.728516 -4.755563 -5.800781 -5.937500 5.801791 3.398438 -0.849609 -6.162237 2.792969 0.068359 -0.019531 79.287109 18.564455 8.684752 11.220704 3.046875 4.833466 -2.050781 1.523438 -5.439454 -8.941471 3.620674 8.476551 1.314183 -3.792669 -0.015371 0.098085 4.479329 0.932573 0.819640 -4.623509 7.847574 19.874548 4.477904 1.977731 -8.252282 -4.467642 -1.709437 
0.000000 49.779354 9.590698 0.000000 0.000000 -8.632813 0.000000 0.000000 0.000000 2.812500 0.000000 0.000000 -5.429688 -2.539063 -4.678167 5.585938 2.041015 -0.224609 -2.822266 -0.097656 -0.019515 -76.796875 4.707031 -4.628907 -5.800781 -5.937500 5.801791 3.398438 -0.849609 -6.162237 2.792969 0.068359 -0.019531 79.287109 18.750002 8.675016 14.736329 3.007813 4.755347 -2.050781 1.523438 -5.439454 -11.384244 4.139184 8.565994 2.166140 -3.779460 -0.095292 0.170212 4.688076 0.841737 0.819640 -4.623509 7.847574 23.110781 4.458963 2.240004 -8.091924 -4.402374 -1.660655 
0.000000 49.598446 11.417500 0.000000 0.000000 -8.632813 0.000000 0.000000 0.000000 2.275391 0.000000 0.000000 -5.429688 -2.539063 -4.678167 5.585938 2.041015 -0.224609 -2.822266 -0.097656 -0.019515 -77.138672 7.705078 -4.482423 -5.800781 -5.937500 5.801791 3.398438 -0.849609 -6.162237 2.792969 0.068359 -0.019531 79.287109 18.750002 8.675016 18.085938 2.968750 4.696760 -2.050781 1.523438 -5.439454 -14.063632 4.526680 8.451175 3.044484 -3.816832 -0.323858 0.201151 4.472744 0.936600 0.819640 -4.623512 7.847574 26.363756 4.282860 2.461987 -8.232640 -4.583668 -1.569195 
0.000000 49.359638 12.787597 0.000000 0.000000 -8.632813 0.000000 0.000000 0.000000 1.757813 0.000000 0.000000 -5.429688 -2.539063 -4.678167 5.585938 2.041015 -0.224609 -2.822266 -0.097656 -0.019515 -77.275391 10.859375 -4.334098 -5.800781 -5.937500 5.801791 3.398438 -0.849609 -6.162237 2.792969 0.068359 -0.019531 79.287109 18.750002 8.675016 21.425783 2.929688 4.638172 -2.050781 1.523438 -5.439454 -16.379160 4.801172 8.474964 3.892818 -3.758725 -0.227401 0.240851 4.477876 0.916044 0.819640 -4.623512 7.847574 29.387501 4.086684 2.819324 -7.990433 -4.695627 -1.405647 
0.000000 49.055706 14.614398 0.000000 0.000000 -8.632813 0.000000 0.000000 0.000000 1.406250 0.000000 0.000000 -5.429688 -2.539063 -4.678167 5.585938 2.041015 -0.224609 -2.822266 -0.097656 -0.019515 -77.617188 13.837890 -4.208984 -5.800781 -5.937500 5.801791 3.398438 -0.849609 -6.162237 2.792969 0.068359 -0.019531 79.287109 18.750002 8.675016 24.931641 2.871094 4.580079 -2.050781 1.523438 -5.439454 -19.147995 5.399355 8.485579 4.772334 -3.818524 -0.437372 0.115469 4.462900 0.947095 0.819640 -4.623512 7.847574 32.623837 3.910881 2.859953 -8.252013 -4.562740 -1.528176 
